<svg width="188" height="26" viewBox="0 0 188 26" fill="none" xmlns="http://www.w3.org/2000/svg">
<path d="M3 3H22.2V22.2H3V3Z" stroke="#129EDC" stroke-width="6"/>
<path d="M112.412 0.5H104.412C103.412 0.833333 101.412 1.6 101.412 2C101.412 2.5 98.412 5 97.912 5.5C97.512 5.9 94.7453 9.66667 93.412 11.5L94.412 13L97.412 21.5L104.912 25.5H106.912L108.412 24.5L111.912 17.5L113.412 9L112.412 0.5Z" fill="#EFEFEF"/>
<path d="M106.912 25.452L112.276 0.251999H118.324L112.96 25.452H106.912Z" fill="black"/>
<path d="M130.356 25.884C128.628 25.884 127.02 25.584 125.532 24.984C124.068 24.36 122.772 23.508 121.644 22.428C120.54 21.324 119.676 20.052 119.052 18.612C118.428 17.148 118.116 15.576 118.116 13.896C118.116 11.976 118.476 10.176 119.196 8.496C119.94 6.816 120.948 5.34 122.22 4.068C123.516 2.796 125.004 1.8 126.684 1.08C128.388 0.36 130.212 0 132.156 0C134.508 0 136.584 0.456 138.384 1.368C140.208 2.28 141.648 3.588 142.704 5.292L137.988 9.252C137.316 8.076 136.452 7.188 135.396 6.588C134.364 5.964 133.176 5.652 131.832 5.652C130.8 5.652 129.828 5.856 128.916 6.264C128.004 6.672 127.2 7.248 126.504 7.992C125.832 8.712 125.304 9.552 124.92 10.512C124.536 11.472 124.344 12.492 124.344 13.572C124.344 14.82 124.632 15.948 125.208 16.956C125.808 17.964 126.612 18.756 127.62 19.332C128.652 19.908 129.816 20.196 131.112 20.196C132.264 20.196 133.368 19.956 134.424 19.476C135.504 18.972 136.512 18.24 137.448 17.28L140.796 21.42C139.476 22.788 137.868 23.88 135.972 24.696C134.1 25.488 132.228 25.884 130.356 25.884Z" fill="black"/>
<path d="M141.085 25.452L146.449 0.251999H152.497L148.285 19.98H161.317L160.165 25.452H141.085Z" fill="black"/>
<path d="M162.9 25.452L168.264 0.251999H187.74L186.588 5.616H173.16L172.188 10.152H181.044L179.964 15.336H171.108L170.1 20.088H183.672L182.52 25.452H162.9Z" fill="black"/>
<path fill-rule="evenodd" clip-rule="evenodd" d="M91.4883 7.06329L86.7485 0.395999H79.3685L88.0967 12.091L91.4261 7.81035L91.4883 7.06329ZM92.4497 7.56837L92.4103 8.04152L92.3979 8.18964L92.3067 8.30697L88.8112 12.8011L79.4611 25.596H86.0285L92.0045 17.172L98.0165 25.596H105.397L95.6765 12.6L104.641 0.395999H97.5485L92.4497 7.56837ZM78.9774 25.596L78.9489 25.5792L78.9365 25.596H78.9774ZM67.8753 25.992C65.9793 25.992 64.2153 25.668 62.5833 25.02C60.9513 24.348 59.5233 23.424 58.2993 22.248C57.0753 21.048 56.1152 19.668 55.4193 18.108C54.7472 16.524 54.4113 14.82 54.4113 12.996C54.4113 11.172 54.7472 9.48 55.4193 7.92C56.1152 6.336 57.0753 4.956 58.2993 3.78C59.5233 2.58 60.9513 1.656 62.5833 1.008C64.2153 0.336 65.9793 0 67.8753 0C69.7713 0 71.5353 0.336 73.1673 1.008C74.7993 1.656 76.2273 2.58 77.4513 3.78C78.6753 4.956 79.6232 6.336 80.2952 7.92C80.9912 9.48 81.3393 11.172 81.3393 12.996C81.3393 14.82 80.9912 16.524 80.2952 18.108C79.6232 19.668 78.6753 21.048 77.4513 22.248C76.2273 23.424 74.7993 24.348 73.1673 25.02C71.5353 25.668 69.7713 25.992 67.8753 25.992ZM67.8753 20.304C68.8833 20.304 69.8193 20.124 70.6833 19.764C71.5472 19.38 72.2913 18.864 72.9153 18.216C73.5633 17.568 74.0673 16.8 74.4273 15.912C74.7873 15 74.9673 14.028 74.9673 12.996C74.9673 11.94 74.7873 10.968 74.4273 10.08C74.0673 9.192 73.5633 8.424 72.9153 7.776C72.2913 7.128 71.5472 6.624 70.6833 6.264C69.8193 5.88 68.8833 5.688 67.8753 5.688C66.8673 5.688 65.9313 5.88 65.0673 6.264C64.2033 6.624 63.4473 7.128 62.7993 7.776C62.1753 8.424 61.6833 9.192 61.3233 10.08C60.9633 10.968 60.7833 11.94 60.7833 12.996C60.7833 14.028 60.9633 15 61.3233 15.912C61.6833 16.8 62.1753 17.568 62.7993 18.216C63.4473 18.864 64.2033 19.38 65.0673 19.764C65.9313 20.124 66.8673 20.304 67.8753 20.304ZM31 25.596V0.395999H43.492C45.22 0.395999 46.732 0.696 48.028 1.296C49.348 1.896 50.38 2.736 51.124 3.816C51.868 4.872 52.24 6.096 52.24 7.488C52.24 8.52 51.976 9.492 51.448 10.404C50.944 11.292 50.248 12.048 49.36 12.672C50.488 13.272 51.376 14.052 52.024 15.012C52.696 15.972 53.032 17.028 53.032 18.18C53.032 19.644 52.66 20.94 51.916 22.068C51.172 23.172 50.128 24.036 48.784 24.66C47.44 25.284 45.88 25.596 44.104 25.596H31ZM37.192 10.44H43.096C44.008 10.44 44.728 10.212 45.256 9.756C45.784 9.3 46.048 8.7 46.048 7.956C46.048 7.188 45.784 6.588 45.256 6.156C44.728 5.7 44.008 5.472 43.096 5.472H37.192V10.44ZM37.192 20.52H43.636C44.596 20.52 45.352 20.28 45.904 19.8C46.48 19.32 46.768 18.672 46.768 17.856C46.768 17.04 46.48 16.392 45.904 15.912C45.352 15.432 44.596 15.192 43.636 15.192H37.192V20.52Z" fill="black"/>
</svg>
